<svg width="120" height="120" viewBox="0 0 120 120" fill="none" xmlns="http://www.w3.org/2000/svg">
<path d="M71.2801 69.2572C76.6973 65.6572 80.2973 59.5029 80.2973 52.5087C80.2973 41.4344 71.2801 32.4172 60.2058 32.4172C49.1316 32.4172 40.1144 41.4344 40.1144 52.5087C40.1144 59.5029 43.6973 65.6572 49.1316 69.2572C36.8573 73.783 28.063 85.5772 28.063 99.3944H33.4287C33.4287 84.6172 45.4458 72.6001 60.223 72.6001C75.0001 72.6001 87.0173 84.6172 87.0173 99.3944H92.383C92.3487 85.5772 83.5544 73.8001 71.2801 69.2572ZM45.463 52.5258C45.463 44.4001 52.0801 37.7829 60.2058 37.7829C68.3316 37.7829 74.9487 44.4001 74.9487 52.5258C74.9487 60.6515 68.3316 67.2687 60.2058 67.2687C52.0801 67.2515 45.463 60.6515 45.463 52.5258Z" fill="#3CB95B"/>
<path d="M98.0745 55.8686C103.492 52.2686 107.092 46.1143 107.092 39.12C107.092 28.0457 98.0746 19.0286 87.0003 19.0286C81.6346 19.0286 76.766 21.1543 73.1488 24.6C71.8117 25.8686 70.6631 27.3257 69.7031 28.9371C71.3831 29.6057 72.9603 30.4457 74.4346 31.44C75.3774 29.8971 76.5946 28.5429 78.0346 27.4457C80.5203 25.5429 83.6231 24.3943 86.9831 24.3943C95.1088 24.3943 101.726 31.0114 101.726 39.1371C101.726 45.8743 97.166 51.5657 90.9774 53.3143C89.7088 53.6743 88.3717 53.88 87.0003 53.88C86.5203 53.88 86.0574 53.8457 85.5945 53.8114C85.4917 55.7486 85.2003 57.6171 84.686 59.4C85.4574 59.3314 86.2117 59.2286 87.0003 59.2286C88.0803 59.2286 89.1603 59.3143 90.206 59.4343C103.475 61.0286 113.795 72.3257 113.795 86.0229H119.143C119.143 72.1886 110.349 60.3943 98.0745 55.8686Z" fill="#3CB95B"/>
<path d="M33.4115 59.2115C34.2 59.2115 34.9543 59.3143 35.7257 59.3829C35.2286 57.5829 34.92 55.7143 34.8172 53.7943C34.3543 53.8458 33.8915 53.8629 33.4115 53.8629C32.0229 53.8629 30.7029 53.6572 29.4343 53.2972C23.2457 51.5486 18.6857 45.8743 18.6857 39.12C18.6857 30.9943 25.3029 24.3772 33.4286 24.3772C36.8057 24.3772 39.8915 25.5258 42.3772 27.4286C43.8 28.5258 45.0343 29.88 45.9772 31.4229C47.4515 30.4286 49.0457 29.5886 50.7086 28.92C49.7657 27.3258 48.6 25.8686 47.2629 24.5829C43.6629 21.1372 38.7772 19.0115 33.4115 19.0115C22.3372 19.0115 13.32 28.0286 13.32 39.1029C13.32 46.0972 16.9029 52.2515 22.3372 55.8515C10.0458 60.3943 1.25146 72.1886 1.25146 86.0058H6.61718C6.61718 72.3258 16.9372 61.0115 30.2057 59.4172C31.2515 59.2972 32.3143 59.2115 33.4115 59.2115Z" fill="#3CB95B"/>
</svg>
