<svg width="59" height="58" viewBox="0 0 59 58" fill="none" xmlns="http://www.w3.org/2000/svg">
<rect x="0.5" width="58" height="58" rx="12" fill="#FCF1E3"/>
<path d="M29.5 37.7603C24.6666 37.7603 20.7396 33.8333 20.7396 28.9999C20.7396 24.1666 24.6666 20.2395 29.5 20.2395C34.3333 20.2395 38.2604 24.1666 38.2604 28.9999C38.2604 33.8333 34.3333 37.7603 29.5 37.7603ZM29.5 22.052C25.6696 22.052 22.5521 25.1695 22.5521 28.9999C22.5521 32.8303 25.6696 35.9478 29.5 35.9478C33.3304 35.9478 36.4479 32.8303 36.4479 28.9999C36.4479 25.1695 33.3304 22.052 29.5 22.052Z" fill="#E6B44C"/>
<path d="M29.5 42.2433C28.8354 42.2433 28.2916 41.7478 28.2916 41.0833V40.9866C28.2916 40.322 28.8354 39.7783 29.5 39.7783C30.1646 39.7783 30.7083 40.322 30.7083 40.9866C30.7083 41.6512 30.1646 42.2433 29.5 42.2433ZM38.1275 38.8358C37.8133 38.8358 37.5112 38.7149 37.2696 38.4853L37.1125 38.3283C36.6412 37.857 36.6412 37.0958 37.1125 36.6245C37.5837 36.1533 38.345 36.1533 38.8162 36.6245L38.9733 36.7816C39.4446 37.2528 39.4446 38.0141 38.9733 38.4853C38.7437 38.7149 38.4416 38.8358 38.1275 38.8358ZM20.8725 38.8358C20.5583 38.8358 20.2562 38.7149 20.0146 38.4853C19.5433 38.0141 19.5433 37.2528 20.0146 36.7816L20.1716 36.6245C20.6429 36.1533 21.4041 36.1533 21.8754 36.6245C22.3466 37.0958 22.3466 37.857 21.8754 38.3283L21.7183 38.4853C21.4887 38.7149 21.1746 38.8358 20.8725 38.8358ZM41.5833 30.2083H41.4866C40.8221 30.2083 40.2783 29.6645 40.2783 28.9999C40.2783 28.3353 40.8221 27.7916 41.4866 27.7916C42.1512 27.7916 42.7433 28.3353 42.7433 28.9999C42.7433 29.6645 42.2479 30.2083 41.5833 30.2083ZM17.5133 30.2083H17.4166C16.7521 30.2083 16.2083 29.6645 16.2083 28.9999C16.2083 28.3353 16.7521 27.7916 17.4166 27.7916C18.0812 27.7916 18.6733 28.3353 18.6733 28.9999C18.6733 29.6645 18.1779 30.2083 17.5133 30.2083ZM37.9704 21.7378C37.6562 21.7378 37.3541 21.617 37.1125 21.3874C36.6412 20.9162 36.6412 20.1549 37.1125 19.6837L37.2696 19.5266C37.7408 19.0553 38.5021 19.0553 38.9733 19.5266C39.4446 19.9978 39.4446 20.7591 38.9733 21.2303L38.8162 21.3874C38.5866 21.617 38.2846 21.7378 37.9704 21.7378ZM21.0296 21.7378C20.7154 21.7378 20.4133 21.617 20.1716 21.3874L20.0146 21.2183C19.5433 20.747 19.5433 19.9858 20.0146 19.5145C20.4858 19.0433 21.2471 19.0433 21.7183 19.5145L21.8754 19.6716C22.3466 20.1428 22.3466 20.9041 21.8754 21.3753C21.6458 21.617 21.3316 21.7378 21.0296 21.7378ZM29.5 18.1733C28.8354 18.1733 28.2916 17.6778 28.2916 17.0133V16.9166C28.2916 16.252 28.8354 15.7083 29.5 15.7083C30.1646 15.7083 30.7083 16.252 30.7083 16.9166C30.7083 17.5812 30.1646 18.1733 29.5 18.1733Z" fill="#E6B44C"/>
</svg>
