<svg width="59" height="58" viewBox="0 0 59 58" fill="none" xmlns="http://www.w3.org/2000/svg">
<rect x="0.5" width="58" height="58" rx="12" fill="#F8E8F8"/>
<path d="M22.25 36.4298C22.25 38.4343 23.1049 40.3521 24.5958 41.692C25.9091 42.872 27.5567 43.5 29.3028 43.5C29.5636 43.5 29.827 43.4858 30.0913 43.4575C33.2622 43.118 35.8789 40.5813 36.3125 37.426C36.3131 37.4257 36.3131 37.4257 36.3131 37.4254C36.7438 34.2648 35.0694 31.2653 32.21 29.9844V17.3913C32.21 16.6125 31.9076 15.8859 31.3619 15.3481C30.8152 14.8012 30.0896 14.5 29.3184 14.5C27.724 14.5 26.4269 15.7971 26.4269 17.3913V29.985C23.912 31.1166 22.25 33.6551 22.25 36.4298ZM27.2452 30.9532C27.48 30.8641 27.6352 30.6393 27.6352 30.3883V28.8743H28.3915C28.7252 28.8743 28.9957 28.6038 28.9957 28.2702C28.9957 27.9365 28.7252 27.666 28.3915 27.666H27.6352V26.563H28.9957C29.3293 26.563 29.5999 26.2925 29.5999 25.9589C29.5999 25.6252 29.3293 25.3547 28.9957 25.3547H27.6352V24.252H28.3915C28.7252 24.252 28.9957 23.9815 28.9957 23.6479C28.9957 23.3142 28.7252 23.0437 28.3915 23.0437H27.6352V21.941H28.9957C29.3293 21.941 29.5999 21.6705 29.5999 21.3369C29.5999 21.0032 29.3293 20.7327 28.9957 20.7327H27.6352V19.6297H28.3915C28.7252 19.6297 28.9957 19.3592 28.9957 19.0256C28.9957 18.6919 28.7252 18.4214 28.3915 18.4214H27.6352V17.3913C27.6352 16.4632 28.3904 15.7083 29.3184 15.7083C29.7665 15.7083 30.1887 15.8838 30.5105 16.2057C30.8273 16.5178 31.0017 16.9387 31.0017 17.3913V30.3883C31.0017 30.6393 31.1569 30.8641 31.3917 30.9532C33.9579 31.9267 35.4895 34.5206 35.116 37.2614C34.7561 39.8742 32.5891 41.9749 29.9627 42.2563C28.2721 42.4336 26.6546 41.9176 25.4035 40.7931C24.1672 39.6821 23.4583 38.0918 23.4583 36.4298C23.4583 34.0129 24.9802 31.8122 27.2452 30.9532Z" fill="#A559DA"/>
<path d="M25.7565 39.4222C26.643 40.4774 27.9386 41.0827 29.3112 41.0827C29.6449 41.0827 29.9154 40.8122 29.9154 40.4786C29.9154 40.1449 29.6449 39.8744 29.3112 39.8744C28.2964 39.8744 27.338 39.4263 26.6819 38.6449C26.0258 37.8637 25.7521 36.8306 25.9308 35.8102C25.9887 35.4816 25.7689 35.1683 25.4403 35.1108C25.1093 35.053 24.7983 35.273 24.7408 35.6014C24.5001 36.9743 24.8703 38.367 25.7565 39.4222Z" fill="#A559DA"/>
</svg>
