<svg width="120" height="120" viewBox="0 0 120 120" fill="none" xmlns="http://www.w3.org/2000/svg">
<path fill-rule="evenodd" clip-rule="evenodd" d="M29.1689 8.37002C25.7348 9.5282 22.6833 10.8876 21.0246 11.669C19.7164 12.2854 18.2937 12.6174 16.8516 12.6469C11.2553 12.7613 9.16491 13.6104 8.1426 14.7612C7.02151 16.0231 6.31579 18.5609 6.31579 24.6341V101.696C6.31579 107.769 7.0215 110.307 8.14259 111.569C9.1649 112.719 11.2553 113.569 16.8515 113.683C17.3002 113.692 17.8057 113.584 18.3331 113.336C20.1144 112.496 23.4044 111.029 27.1508 109.765C30.8377 108.522 35.2385 107.381 39.1579 107.381C42.599 107.381 46.3926 108.259 49.7234 109.297C53.0979 110.349 56.2147 111.636 58.3656 112.595C59.4018 113.057 60.5982 113.057 61.6344 112.595C63.7853 111.636 66.9022 110.349 70.2766 109.297C73.6074 108.259 77.401 107.381 80.8421 107.381C84.7615 107.381 89.1623 108.522 92.8492 109.765C96.5956 111.029 99.8857 112.496 101.667 113.336C102.194 113.584 102.7 113.692 103.149 113.683C108.745 113.569 110.835 112.719 111.857 111.569C112.979 110.307 113.684 107.769 113.684 101.696V24.6341C113.684 18.5609 112.979 16.0231 111.857 14.7612C110.835 13.6104 108.745 12.7613 103.148 12.6469C101.706 12.6174 100.284 12.2854 98.9754 11.669C97.3167 10.8876 94.2652 9.5282 90.8311 8.37002C87.3374 7.19176 83.7187 6.31651 80.8421 6.31651C78.3419 6.31651 75.259 6.97956 72.1562 7.9469C69.0972 8.9006 66.2236 10.0841 64.2051 10.9837C61.5327 12.1747 58.4673 12.1747 55.7949 10.9837C53.7764 10.0841 50.9028 8.9006 47.8438 7.9469C44.741 6.97956 41.6581 6.31651 39.1579 6.31651C36.2813 6.31651 32.6626 7.19176 29.1689 8.37002ZM27.1508 2.38466C30.8377 1.14125 35.2385 1.88247e-07 39.1579 0C42.599 0 46.3926 0.878173 49.7234 1.9166C53.0979 2.96867 56.2148 4.25551 58.3657 5.2141C59.4018 5.6759 60.5982 5.6759 61.6343 5.2141C63.7852 4.25551 66.9021 2.96867 70.2766 1.9166C73.6074 0.878173 77.401 0 80.8421 0C84.7615 0 89.1623 1.14125 92.8492 2.38466C96.5956 3.64815 99.8857 5.11562 101.667 5.95481C102.169 6.19151 102.719 6.32025 103.278 6.33168C108.856 6.44575 113.58 7.19052 116.579 10.5658C119.479 13.8298 120 18.7502 120 24.6341V101.696C120 107.58 119.479 112.5 116.579 115.764C113.58 119.139 108.856 119.884 103.278 119.998C101.725 120.03 100.259 119.655 98.9753 119.05C97.3166 118.268 94.2651 116.909 90.831 115.751C87.3373 114.572 83.7187 113.697 80.8421 113.697C78.3419 113.697 75.2591 114.36 72.1564 115.328C69.0974 116.281 66.2238 117.465 64.2053 118.364C61.5327 119.556 58.4673 119.556 55.7947 118.364C53.7762 117.465 50.9026 116.281 47.8436 115.328C44.7409 114.36 41.6581 113.697 39.1579 113.697C36.2813 113.697 32.6627 114.572 29.169 115.751C25.7349 116.909 22.6835 118.268 21.0247 119.05C19.7414 119.655 18.2748 120.03 16.7224 119.998C11.1438 119.884 6.41969 119.139 3.42116 115.764C0.521421 112.5 0 107.58 0 101.696V24.6341C0 18.7502 0.521423 13.8298 3.42118 10.5658C6.41972 7.19052 11.1439 6.44575 16.7225 6.33168C17.2814 6.32025 17.8307 6.19151 18.3331 5.95481C20.1143 5.11562 23.4044 3.64815 27.1508 2.38466Z" fill="#3CB95B"/>
<path fill-rule="evenodd" clip-rule="evenodd" d="M59.9999 6.31653C61.744 6.31653 63.1578 7.73053 63.1578 9.47478V113.697C63.1578 115.441 61.744 116.855 59.9999 116.855C58.2559 116.855 56.842 115.441 56.842 113.697V9.47478C56.842 7.73053 58.2559 6.31653 59.9999 6.31653Z" fill="#3CB95B"/>
</svg>
