<svg width="116" height="100" viewBox="0 0 116 100" fill="none" xmlns="http://www.w3.org/2000/svg">
<path d="M3 20.5696V14.7131C3 11.6066 4.44865 8.6273 7.02728 6.43067C9.6059 4.23405 13.1033 3 16.75 3H30.5" stroke="#3CB95B" stroke-width="5" stroke-linecap="round" stroke-linejoin="round"/>
<path d="M3 79.1349V84.9914C3 88.0979 4.44865 91.0772 7.02728 93.2738C9.6059 95.4704 13.1033 96.7045 16.75 96.7045H30.5" stroke="#3CB95B" stroke-width="5" stroke-linecap="round" stroke-linejoin="round"/>
<path d="M85.5 3H99.25C102.897 3 106.394 4.23405 108.973 6.43067C111.551 8.6273 113 11.6066 113 14.7131V20.5696" stroke="#3CB95B" stroke-width="5" stroke-linecap="round" stroke-linejoin="round"/>
<path d="M85.5 96.7045H99.25C102.897 96.7045 106.394 95.4704 108.973 93.2738C111.551 91.0772 113 88.0979 113 84.9914V79.1349" stroke="#3CB95B" stroke-width="5" stroke-linecap="round" stroke-linejoin="round"/>
<path d="M78.7008 48.3184C78.7008 55.4261 71.1397 62.133 60.5005 62.133C49.8614 62.133 42.3003 55.4261 42.3003 48.3184C42.3003 41.2107 49.8614 34.5038 60.5005 34.5038C71.1397 34.5038 78.7008 41.2107 78.7008 48.3184Z" stroke="#3CB95B" stroke-width="5"/>
</svg>
