<svg width="120" height="120" viewBox="0 0 120 120" fill="none" xmlns="http://www.w3.org/2000/svg">
<path fill-rule="evenodd" clip-rule="evenodd" d="M25.8626 25.2632H94.1374C96.6377 25.263 98.8097 25.2629 100.573 25.4812C102.472 25.7161 104.297 26.243 105.871 27.5799C107.444 28.9169 108.235 30.6128 108.741 32.4212C109.211 34.1007 109.518 36.2072 109.871 38.6321L119.141 102.201C119.602 105.364 119.996 108.064 120 110.238C120.004 112.551 119.58 114.826 117.892 116.734C116.203 118.641 113.964 119.374 111.626 119.697C109.43 120 106.645 120 103.384 120H16.6162C13.3546 120 10.5703 120 8.37389 119.697C6.03568 119.374 3.79657 118.641 2.10828 116.734C0.419996 114.826 -0.00420862 112.551 3.13694e-05 110.238C0.0040141 108.065 0.397922 105.364 0.859346 102.201L10.1014 38.8197C10.1105 38.757 10.1196 38.6944 10.1287 38.6321C10.4822 36.2072 10.7892 34.1007 11.2591 32.4212C11.7651 30.6128 12.5556 28.9169 14.1291 27.5799C15.7025 26.243 17.528 25.7161 19.4268 25.4812C21.1903 25.2629 23.3623 25.263 25.8626 25.2632ZM20.2347 31.7472C19.0134 31.8983 18.5971 32.1437 18.3529 32.3512C18.1087 32.5588 17.8018 32.9278 17.4764 34.0909C17.1269 35.3398 16.8721 37.046 16.4832 39.7129L7.27374 102.871C6.77085 106.32 6.44971 108.574 6.44664 110.249C6.44373 111.834 6.73888 112.325 6.9784 112.595C7.21793 112.866 7.67195 113.222 9.27412 113.443C10.9666 113.677 13.2905 113.684 16.8465 113.684H103.154C106.71 113.684 109.033 113.677 110.726 113.443C112.328 113.222 112.782 112.866 113.022 112.595C113.261 112.325 113.556 111.834 113.553 110.249C113.55 108.574 113.229 106.32 112.726 102.871L103.517 39.7129C103.128 37.046 102.873 35.3398 102.524 34.0909C102.198 32.9278 101.891 32.5588 101.647 32.3512C101.403 32.1437 100.987 31.8983 99.7653 31.7472C98.4539 31.5849 96.6938 31.579 93.9441 31.579H26.0559C23.3062 31.579 21.5461 31.5849 20.2347 31.7472Z" fill="#3CB95B"/>
<path fill-rule="evenodd" clip-rule="evenodd" d="M37.437 9.47368C37.437 4.24151 41.7664 0 47.1069 0H72.8934C78.234 0 82.5633 4.24151 82.5633 9.47368V53.6842C82.5633 55.4283 81.1202 56.8421 79.34 56.8421C77.5598 56.8421 76.1167 55.4283 76.1167 53.6842V9.47368C76.1167 7.72963 74.6736 6.31579 72.8934 6.31579H47.1069C45.3268 6.31579 43.8836 7.72963 43.8836 9.47368V53.6842C43.8836 55.4283 42.4405 56.8421 40.6603 56.8421C38.8801 56.8421 37.437 55.4283 37.437 53.6842V9.47368Z" fill="#3CB95B"/>
</svg>
