<svg width="146" height="22" viewBox="0 0 146 22" fill="none" xmlns="http://www.w3.org/2000/svg">
<path d="M17.0641 0.304709C17.4688 0.304709 17.8523 0.33518 18.2145 0.396122C18.5766 0.457063 18.8749 0.650046 19.1092 0.975069C19.3648 1.30009 19.4927 1.85873 19.4927 2.65097C19.4927 3.4229 19.3648 3.98153 19.1092 4.32687C18.8749 4.65189 18.566 4.84488 18.1825 4.90582C17.8203 4.96676 17.4369 4.99723 17.0321 4.99723H12.6223V18.9529C12.6223 19.3998 12.5797 19.8366 12.4945 20.2632C12.4093 20.6694 12.1643 21.0046 11.7595 21.2687C11.376 21.5328 10.6943 21.6648 9.71438 21.6648C8.77702 21.6648 8.10597 21.5328 7.7012 21.2687C7.29643 20.9843 7.05144 20.639 6.96623 20.2327C6.90232 19.8061 6.87036 19.3693 6.87036 18.9224V4.99723H2.42859C2.04513 4.99723 1.66167 4.96676 1.27821 4.90582C0.916049 4.82456 0.607149 4.62142 0.351507 4.2964C0.117169 3.97138 0 3.41274 0 2.6205C0 1.84857 0.117169 1.30009 0.351507 0.975069C0.607149 0.650046 0.9267 0.457063 1.31016 0.396122C1.69362 0.33518 2.07709 0.304709 2.46055 0.304709H17.0641Z" fill="black"/>
<path d="M25.3255 22C23.7277 22 22.375 21.7562 21.2672 21.2687C20.1594 20.7609 19.2647 20.1108 18.5829 19.3186C17.9012 18.506 17.4006 17.6325 17.081 16.6981C16.7615 15.7636 16.6017 14.8596 16.6017 13.9861C16.6017 12.3813 16.9745 10.9695 17.7201 9.75069C18.4658 8.53186 19.499 7.5771 20.8198 6.88643C22.1406 6.19575 23.6532 5.85041 25.3574 5.85041C26.6783 5.85041 27.8073 6.05355 28.7447 6.45983C29.682 6.86611 30.4383 7.38412 31.0135 8.01385C31.61 8.64358 32.0467 9.31394 32.3237 10.0249C32.6006 10.7359 32.7391 11.3961 32.7391 12.0055C32.7391 13.1634 32.4408 14.0471 31.8443 14.6565C31.2478 15.2659 30.4809 15.5706 29.5436 15.5706H22.7371C22.8223 15.8957 22.9928 16.1801 23.2484 16.4238C23.5253 16.6473 23.8662 16.8301 24.271 16.9723C24.6757 17.0942 25.1124 17.1551 25.5811 17.1551C26.0498 17.1551 26.4652 17.1348 26.8274 17.0942C27.1895 17.0332 27.4984 16.9621 27.7541 16.8809C28.031 16.7996 28.276 16.7184 28.489 16.6371C28.7234 16.5559 28.9258 16.4949 29.0962 16.4543C29.2879 16.3934 29.469 16.3629 29.6394 16.3629C30.0229 16.3629 30.3744 16.4848 30.694 16.7285C31.0135 16.9723 31.3011 17.338 31.5567 17.8255C31.7059 18.0896 31.8124 18.3435 31.8763 18.5873C31.9402 18.8107 31.9722 19.024 31.9722 19.2271C31.9722 19.8366 31.7059 20.3444 31.1733 20.7507C30.662 21.157 29.9164 21.4617 28.9364 21.6648C27.9565 21.8883 26.7528 22 25.3255 22ZM22.7371 12.7064H26.3161C26.6143 12.7064 26.8274 12.6454 26.9552 12.5235C27.1043 12.4017 27.1789 12.2188 27.1789 11.9751C27.1789 11.711 27.0937 11.4875 26.9232 11.3047C26.7741 11.1219 26.5611 10.9898 26.2841 10.9086C26.0072 10.807 25.677 10.7562 25.2935 10.7562C24.7822 10.7562 24.3349 10.8578 23.9514 11.0609C23.5679 11.2438 23.2697 11.4875 23.0567 11.7922C22.8649 12.0766 22.7584 12.3813 22.7371 12.7064Z" fill="black"/>
<path d="M37.058 21.6648C36.0994 21.6648 35.4177 21.5328 35.0129 21.2687C34.6081 20.9843 34.3631 20.6288 34.2779 20.2022C34.214 19.7553 34.1821 19.3084 34.1821 18.8615V8.92798C34.1821 8.46076 34.2247 8.02401 34.3099 7.61773C34.3951 7.19114 34.6401 6.8458 35.0449 6.58172C35.4496 6.31764 36.1313 6.1856 37.09 6.1856C38.0273 6.1856 38.6877 6.30748 39.0712 6.55125C39.476 6.79501 39.721 7.06925 39.8062 7.37396C39.8914 7.65836 39.934 7.88181 39.934 8.04432L39.4227 7.8615C39.4227 7.8615 39.5079 7.77008 39.6784 7.58726C39.8488 7.40443 40.0938 7.19114 40.4133 6.94737C40.7542 6.7036 41.1483 6.49031 41.5957 6.30748C42.0643 6.12465 42.5863 6.03324 43.1615 6.03324C43.3532 6.03324 43.5875 6.05356 43.8645 6.09418C44.1627 6.1145 44.4716 6.16528 44.7912 6.24654C45.132 6.32779 45.4409 6.44968 45.7179 6.61219C46.0161 6.7747 46.2505 6.988 46.4209 7.25208C46.6126 7.51616 46.7085 7.84118 46.7085 8.22715C46.7085 9.24284 46.4742 10.1062 46.0055 10.8172C45.5581 11.5282 44.9616 11.8837 44.216 11.8837C43.8112 11.8837 43.5236 11.8633 43.3532 11.8227C43.1828 11.7618 43.055 11.711 42.9697 11.6704C42.9058 11.6094 42.8206 11.5586 42.7141 11.518C42.6289 11.4571 42.4585 11.4266 42.2028 11.4266C41.8833 11.4266 41.585 11.4672 41.3081 11.5485C41.0524 11.6094 40.8181 11.711 40.6051 11.8532C40.4133 11.9954 40.2642 12.1681 40.1577 12.3712C40.0512 12.554 39.9979 12.7572 39.9979 12.9806V18.9224C39.9979 19.3693 39.9553 19.8061 39.8701 20.2327C39.7849 20.6593 39.5399 21.0046 39.1351 21.2687C38.7303 21.5328 38.038 21.6648 37.058 21.6648Z" fill="black"/>
<path d="M50.8512 21.6648C49.8925 21.6648 49.2108 21.5328 48.8061 21.2687C48.4013 20.9843 48.1563 20.6288 48.0711 20.2022C48.0072 19.7553 47.9752 19.3084 47.9752 18.8615V8.92798C47.9752 8.46076 48.0178 8.02401 48.103 7.61773C48.1883 7.19114 48.4332 6.8458 48.838 6.58172C49.2428 6.31764 49.9245 6.1856 50.8831 6.1856C51.8205 6.1856 52.4809 6.30748 52.8644 6.55125C53.2691 6.79501 53.5141 7.06925 53.5993 7.37396C53.6845 7.65836 53.7272 7.88181 53.7272 8.04432L53.2159 7.8615C53.2159 7.8615 53.3011 7.77008 53.4715 7.58726C53.6419 7.40443 53.8869 7.19114 54.2065 6.94737C54.5473 6.7036 54.9415 6.49031 55.3888 6.30748C55.8575 6.12465 56.3794 6.03324 56.9546 6.03324C57.1464 6.03324 57.3807 6.05356 57.6576 6.09418C57.9559 6.1145 58.2648 6.16528 58.5843 6.24654C58.9252 6.32779 59.2341 6.44968 59.511 6.61219C59.8093 6.7747 60.0436 6.988 60.2141 7.25208C60.4058 7.51616 60.5017 7.84118 60.5017 8.22715C60.5017 9.24284 60.2673 10.1062 59.7986 10.8172C59.3513 11.5282 58.7548 11.8837 58.0091 11.8837C57.6044 11.8837 57.3168 11.8633 57.1464 11.8227C56.9759 11.7618 56.8481 11.711 56.7629 11.6704C56.699 11.6094 56.6138 11.5586 56.5073 11.518C56.422 11.4571 56.2516 11.4266 55.996 11.4266C55.6764 11.4266 55.3782 11.4672 55.1012 11.5485C54.8456 11.6094 54.6112 11.711 54.3982 11.8532C54.2065 11.9954 54.0574 12.1681 53.9508 12.3712C53.8443 12.554 53.7911 12.7572 53.7911 12.9806V18.9224C53.7911 19.3693 53.7485 19.8061 53.6632 20.2327C53.578 20.6593 53.333 21.0046 52.9283 21.2687C52.5235 21.5328 51.8311 21.6648 50.8512 21.6648Z" fill="black"/>
<path d="M73.7748 21.6039C72.8161 21.6039 72.1025 21.4515 71.6338 21.1468C71.1864 20.8421 70.9734 20.4968 70.9947 20.1108H71.4421C71.3355 20.253 71.1225 20.446 70.8029 20.6898C70.5047 20.9132 70.0999 21.1265 69.5887 21.3296C69.0774 21.5125 68.4489 21.6039 67.7033 21.6039C66.7446 21.6039 65.8179 21.4007 64.9232 20.9945C64.0498 20.5679 63.2615 19.9889 62.5585 19.2576C61.8768 18.5263 61.3336 17.7036 60.9288 16.7895C60.524 15.855 60.3217 14.88 60.3217 13.8643C60.3217 12.8689 60.524 11.9141 60.9288 11C61.3336 10.0859 61.8875 9.27332 62.5905 8.56233C63.2935 7.83103 64.0817 7.26224 64.9552 6.85596C65.8286 6.42936 66.7446 6.21607 67.7033 6.21607C68.4276 6.21607 69.0348 6.31764 69.5247 6.52078C70.036 6.72392 70.4408 6.94737 70.739 7.19114C71.0586 7.4349 71.2716 7.63804 71.3781 7.80056H71.0266C71.0053 7.29271 71.2184 6.89658 71.6657 6.61219C72.1344 6.32779 72.8481 6.1856 73.8067 6.1856C74.7654 6.1856 75.4365 6.32779 75.8199 6.61219C76.2247 6.87627 76.4697 7.22161 76.5549 7.6482C76.6401 8.07479 76.6827 8.51154 76.6827 8.95845V18.8615C76.6827 19.3084 76.6401 19.7452 76.5549 20.1717C76.4697 20.5983 76.2247 20.9437 75.8199 21.2078C75.4365 21.4718 74.7547 21.6039 73.7748 21.6039ZM68.5022 16.0886C68.9069 16.0886 69.2691 15.9871 69.5887 15.7839C69.9295 15.5808 70.1958 15.3167 70.3875 14.9917C70.6006 14.6464 70.7071 14.2807 70.7071 13.8947C70.7071 13.4885 70.6006 13.1228 70.3875 12.7978C70.1958 12.4728 69.9295 12.2087 69.5887 12.0055C69.2478 11.8024 68.8643 11.7008 68.4383 11.7008C68.0122 11.7008 67.6181 11.8024 67.2559 12.0055C66.9151 12.2087 66.6381 12.4829 66.4251 12.8283C66.2121 13.1533 66.1055 13.5189 66.1055 13.9252C66.1055 14.3112 66.2121 14.6667 66.4251 14.9917C66.6594 15.3167 66.9577 15.5808 67.3198 15.7839C67.682 15.9871 68.0761 16.0886 68.5022 16.0886Z" fill="black"/>
<path d="M86.2897 21.9695C84.9902 21.9695 83.8824 21.8172 82.9664 21.5125C82.0716 21.2078 81.3367 20.8523 80.7615 20.446C80.1863 20.0194 79.7496 19.6334 79.4513 19.2881C79.1531 18.9428 78.972 18.7295 78.9081 18.6482C78.482 18.1404 78.2157 17.6833 78.1092 17.277C78.024 16.8707 78.0879 16.4645 78.3009 16.0582C78.5353 15.6519 78.9187 15.205 79.4513 14.7175C79.9413 14.2705 80.4206 14.0268 80.8893 13.9861C81.358 13.9252 81.816 14.0166 82.2634 14.2604C82.732 14.5042 83.1794 14.8597 83.6055 15.3269C84.1168 15.8753 84.5535 16.2512 84.9157 16.4543C85.2778 16.6371 85.6932 16.7285 86.1619 16.7285C86.7371 16.7285 87.2058 16.6676 87.5679 16.5457C87.9301 16.4035 88.1964 16.2004 88.3668 15.9363C88.5372 15.6519 88.6225 15.2964 88.6225 14.8698C88.6225 14.5245 88.4414 14.2604 88.0792 14.0776C87.7171 13.8744 87.2377 13.7018 86.6412 13.5596C86.066 13.4174 85.4163 13.265 84.692 13.1025C83.9677 12.9197 83.254 12.6861 82.551 12.4017C82.1249 12.2392 81.7095 12.036 81.3047 11.7922C80.9 11.5485 80.5165 11.2742 80.1543 10.9695C79.8135 10.6445 79.5152 10.2687 79.2596 9.84211C79.004 9.3952 78.8016 8.89751 78.6524 8.34903C78.5246 7.80055 78.4607 7.18098 78.4607 6.4903C78.4607 5.25115 78.7803 4.14404 79.4194 3.16897C80.0798 2.19391 80.9745 1.42198 82.1036 0.853186C83.254 0.284395 84.5535 0 86.0021 0C87.046 0 87.9408 0.0812559 88.6864 0.243768C89.432 0.406278 90.0391 0.599261 90.5078 0.822715C90.9978 1.04617 91.3706 1.25946 91.6262 1.4626C91.8819 1.64543 92.0417 1.76731 92.1056 1.82825C92.8086 2.43767 93.1921 2.96584 93.256 3.41274C93.3199 3.83934 93.0642 4.45891 92.489 5.27147C91.8499 6.14497 91.2215 6.64266 90.6037 6.76454C89.9859 6.86611 89.2722 6.67313 88.4627 6.1856C88.2923 6.06371 88.1218 5.93167 87.9514 5.78947C87.781 5.62696 87.5466 5.49492 87.2484 5.39335C86.9714 5.27147 86.5454 5.21053 85.9702 5.21053C85.7571 5.21053 85.5441 5.25115 85.3311 5.33241C85.118 5.39335 84.937 5.48476 84.7878 5.60665C84.6387 5.70822 84.5109 5.84026 84.4044 6.00277C84.3192 6.16528 84.2766 6.33795 84.2766 6.52078C84.2766 6.94737 84.447 7.28255 84.7878 7.52632C85.1287 7.74977 85.5761 7.92244 86.13 8.04432C86.7052 8.16621 87.3336 8.28809 88.0153 8.40997C88.697 8.53186 89.3894 8.69437 90.0924 8.89751C90.6676 9.08033 91.2215 9.31394 91.7541 9.59834C92.2867 9.88273 92.7553 10.2484 93.1601 10.6953C93.5649 11.1422 93.8844 11.7008 94.1188 12.3712C94.3744 13.0212 94.5022 13.8236 94.5022 14.7784C94.5022 16.0988 94.2359 17.2262 93.7033 18.1607C93.1707 19.0748 92.4784 19.8163 91.6262 20.385C90.7954 20.9335 89.9007 21.3296 88.942 21.5734C88.0047 21.8375 87.1206 21.9695 86.2897 21.9695Z" fill="black"/>
<path d="M104.12 21.8172C103.247 21.8172 102.32 21.6547 101.34 21.3296C100.382 20.9843 99.4763 20.4866 98.6242 19.8366C97.772 19.1662 97.0797 18.3333 96.5471 17.338C96.0145 16.3426 95.7482 15.1847 95.7482 13.8643C95.7482 12.5642 96.0145 11.4266 96.5471 10.4515C97.0797 9.45614 97.7614 8.63342 98.5922 7.98338C99.4444 7.33333 100.35 6.8458 101.308 6.52078C102.288 6.17544 103.204 6.00277 104.057 6.00277C104.866 6.00277 105.569 6.08403 106.166 6.24654C106.762 6.40905 107.252 6.59187 107.636 6.79501C108.019 6.97784 108.296 7.12004 108.466 7.22161C108.892 7.46537 109.287 7.74977 109.649 8.07479C110.032 8.3795 110.224 8.79594 110.224 9.3241C110.224 9.58818 110.171 9.86242 110.064 10.1468C109.958 10.4109 109.787 10.7156 109.553 11.0609C108.786 12.1782 108.019 12.7368 107.252 12.7368C106.911 12.7368 106.613 12.6861 106.357 12.5845C106.102 12.4626 105.867 12.3306 105.654 12.1884C105.441 12.0462 105.207 11.9243 104.951 11.8227C104.717 11.7008 104.419 11.6399 104.057 11.6399C103.63 11.6399 103.236 11.7415 102.874 11.9446C102.512 12.1477 102.224 12.422 102.011 12.7673C101.798 13.0923 101.692 13.4681 101.692 13.8947C101.692 14.3213 101.798 14.7073 102.011 15.0526C102.224 15.398 102.501 15.6722 102.842 15.8753C103.204 16.0785 103.588 16.1801 103.993 16.1801C104.291 16.1801 104.536 16.1496 104.728 16.0886C104.941 16.0277 105.1 15.9668 105.207 15.9058C105.313 15.8246 105.377 15.7839 105.399 15.7839C105.697 15.6214 105.974 15.4691 106.23 15.3269C106.506 15.1847 106.783 15.1136 107.06 15.1136C107.423 15.1136 107.795 15.2456 108.179 15.5097C108.562 15.7535 108.988 16.1597 109.457 16.7285C109.904 17.2567 110.149 17.7544 110.192 18.2216C110.256 18.6685 110.139 19.0951 109.84 19.5014C109.542 19.8874 109.084 20.2632 108.466 20.6288C108.402 20.6694 108.179 20.7913 107.795 20.9945C107.433 21.1773 106.943 21.3601 106.325 21.5429C105.708 21.7258 104.973 21.8172 104.12 21.8172Z" fill="black"/>
<path d="M124.953 21.6039C123.994 21.6039 123.281 21.4515 122.812 21.1468C122.365 20.8421 122.152 20.4968 122.173 20.1108H122.62C122.514 20.253 122.301 20.446 121.981 20.6898C121.683 20.9132 121.278 21.1265 120.767 21.3296C120.256 21.5125 119.627 21.6039 118.882 21.6039C117.923 21.6039 116.996 21.4007 116.101 20.9945C115.228 20.5679 114.44 19.9889 113.737 19.2576C113.055 18.5263 112.512 17.7036 112.107 16.7895C111.702 15.855 111.5 14.88 111.5 13.8643C111.5 12.8689 111.702 11.9141 112.107 11C112.512 10.0859 113.066 9.27332 113.769 8.56233C114.472 7.83103 115.26 7.26224 116.133 6.85596C117.007 6.42936 117.923 6.21607 118.882 6.21607C119.606 6.21607 120.213 6.31764 120.703 6.52078C121.214 6.72392 121.619 6.94737 121.917 7.19114C122.237 7.4349 122.45 7.63804 122.556 7.80056H122.205C122.184 7.29271 122.397 6.89658 122.844 6.61219C123.313 6.32779 124.026 6.1856 124.985 6.1856C125.944 6.1856 126.615 6.32779 126.998 6.61219C127.403 6.87627 127.648 7.22161 127.733 7.6482C127.818 8.07479 127.861 8.51154 127.861 8.95845V18.8615C127.861 19.3084 127.818 19.7452 127.733 20.1717C127.648 20.5983 127.403 20.9437 126.998 21.2078C126.615 21.4718 125.933 21.6039 124.953 21.6039ZM119.68 16.0886C120.085 16.0886 120.447 15.9871 120.767 15.7839C121.108 15.5808 121.374 15.3167 121.566 14.9917C121.779 14.6464 121.885 14.2807 121.885 13.8947C121.885 13.4885 121.779 13.1228 121.566 12.7978C121.374 12.4728 121.108 12.2087 120.767 12.0055C120.426 11.8024 120.043 11.7008 119.616 11.7008C119.19 11.7008 118.796 11.8024 118.434 12.0055C118.093 12.2087 117.816 12.4829 117.603 12.8283C117.39 13.1533 117.284 13.5189 117.284 13.9252C117.284 14.3112 117.39 14.6667 117.603 14.9917C117.838 15.3167 118.136 15.5808 118.498 15.7839C118.86 15.9871 119.254 16.0886 119.68 16.0886Z" fill="black"/>
<path d="M132.643 21.6343C131.684 21.6343 131.002 21.5023 130.598 21.2382C130.193 20.9538 129.948 20.5983 129.863 20.1717C129.799 19.7452 129.767 19.3084 129.767 18.8615V8.83656C129.767 8.38966 129.809 7.96307 129.895 7.55679C129.98 7.15051 130.225 6.82548 130.63 6.58172C131.034 6.31764 131.716 6.1856 132.675 6.1856C133.548 6.1856 134.177 6.29732 134.56 6.52078C134.965 6.72392 135.22 6.97784 135.327 7.28255C135.433 7.58726 135.476 7.87165 135.455 8.13573C135.455 8.3795 135.476 8.53186 135.519 8.5928L135.263 8.77562C135.242 8.47091 135.359 8.16621 135.615 7.8615C135.892 7.55679 136.243 7.28255 136.669 7.03878C137.116 6.7747 137.585 6.57156 138.075 6.42936C138.586 6.26685 139.066 6.1856 139.513 6.1856C140.578 6.1856 141.516 6.37858 142.325 6.76454C143.135 7.15051 143.806 7.69899 144.338 8.40997C144.892 9.10065 145.308 9.91321 145.585 10.8476C145.862 11.7821 146 12.7978 146 13.8947V18.892C146 19.3389 145.957 19.7756 145.872 20.2022C145.787 20.6288 145.542 20.9741 145.137 21.2382C144.754 21.5023 144.072 21.6343 143.092 21.6343C142.112 21.6343 141.42 21.5023 141.015 21.2382C140.61 20.9538 140.365 20.5983 140.28 20.1717C140.195 19.7452 140.152 19.3084 140.152 18.8615V13.8947C140.152 13.4275 140.056 13.0314 139.865 12.7064C139.694 12.3813 139.439 12.1376 139.098 11.9751C138.778 11.7922 138.373 11.7008 137.883 11.7008C137.415 11.7008 136.999 11.7922 136.637 11.9751C136.296 12.1579 136.03 12.4118 135.838 12.7368C135.647 13.0619 135.551 13.4478 135.551 13.8947V18.892C135.551 19.3389 135.508 19.7756 135.423 20.2022C135.338 20.6288 135.093 20.9741 134.688 21.2382C134.304 21.5023 133.623 21.6343 132.643 21.6343Z" fill="black"/>
</svg>
